<svg xmlns="http://www.w3.org/2000/svg" xmlns:xlink="http://www.w3.org/1999/xlink" width="1080" zoomAndPan="magnify" viewBox="0 0 810 809.999993" height="1080" preserveAspectRatio="xMidYMid meet" version="1.0"><defs><clipPath id="c679030794"><path d="M 6 32.382812 L 797 32.382812 L 797 763.632812 L 6 763.632812 Z M 6 32.382812 " clip-rule="nonzero"/></clipPath></defs><rect x="-81" width="972" fill="#ffffff" y="-80.999999" height="971.999992" fill-opacity="1"/><rect x="-81" width="972" fill="#36ce3c" y="-80.999999" height="971.999992" fill-opacity="1"/><g clip-path="url(#c679030794)"><path fill="#ffffff" d="M 431.183594 32.382812 C 229.191406 32.382812 65.449219 196.042969 65.449219 397.9375 C 65.425781 420.152344 67.414062 442.1875 71.417969 464.042969 C 75.421875 485.898438 81.375 507.207031 89.273438 527.972656 L 7.878906 680.523438 C 7.300781 681.605469 6.882812 682.75 6.625 683.949219 C 6.367188 685.152344 6.28125 686.363281 6.363281 687.589844 C 6.445312 688.816406 6.695312 690.007812 7.109375 691.164062 C 7.527344 692.320312 8.09375 693.394531 8.808594 694.394531 C 9.527344 695.390625 10.371094 696.269531 11.332031 697.03125 C 12.296875 697.792969 13.347656 698.410156 14.484375 698.875 C 15.621094 699.34375 16.800781 699.648438 18.023438 699.785156 C 19.242188 699.921875 20.460938 699.886719 21.671875 699.683594 L 188.722656 671.636719 C 196.988281 678.96875 205.570312 685.914062 214.46875 692.46875 C 223.367188 699.023438 232.542969 705.164062 242 710.882812 C 251.457031 716.601562 261.15625 721.882812 271.09375 726.71875 C 281.03125 731.558594 291.167969 735.933594 301.503906 739.851562 C 311.835938 743.765625 322.332031 747.207031 332.980469 750.167969 C 343.628906 753.128906 354.390625 755.601562 365.265625 757.582031 C 376.136719 759.566406 387.078125 761.050781 398.089844 762.039062 C 409.097656 763.027344 420.128906 763.511719 431.183594 763.496094 C 633.175781 763.496094 796.921875 599.824219 796.921875 397.933594 C 796.921875 196.207031 633.007812 32.382812 431.183594 32.382812 Z M 432.269531 668.160156 C 423.457031 668.207031 414.664062 667.820312 405.890625 667.003906 C 397.117188 666.191406 388.402344 664.949219 379.75 663.277344 C 371.097656 661.609375 362.546875 659.519531 354.101562 657.011719 C 345.652344 654.503906 337.347656 651.585938 329.1875 648.265625 C 321.027344 644.941406 313.046875 641.230469 305.25 637.125 C 297.453125 633.019531 289.875 628.542969 282.519531 623.695312 C 275.160156 618.847656 268.058594 613.652344 261.210938 608.109375 C 254.363281 602.5625 247.804688 596.699219 241.53125 590.511719 L 141.453125 608.578125 C 140.257812 608.78125 139.054688 608.816406 137.84375 608.683594 C 136.636719 608.550781 135.46875 608.257812 134.339844 607.804688 C 133.214844 607.347656 132.171875 606.75 131.210938 606.003906 C 130.25 605.261719 129.40625 604.398438 128.683594 603.421875 C 127.960938 602.445312 127.386719 601.390625 126.957031 600.253906 C 126.527344 599.117188 126.261719 597.941406 126.15625 596.730469 C 126.054688 595.519531 126.117188 594.320312 126.34375 593.125 C 126.574219 591.933594 126.960938 590.792969 127.503906 589.707031 L 178.046875 493.011719 C 172.148438 477.324219 167.753906 461.226562 164.863281 444.71875 C 161.972656 428.210938 160.632812 411.578125 160.847656 394.820312 C 162.519531 246.441406 282.71875 127.710938 431.183594 127.710938 C 580.503906 127.710938 701.539062 248.695312 701.539062 397.933594 C 701.539062 547.054688 581.453125 667.574219 432.269531 668.160156 Z M 432.269531 668.160156 " fill-opacity="1" fill-rule="nonzero"/></g><path fill="#ffffff" d="M 392.964844 306.816406 L 381.160156 257.003906 C 380.824219 255.585938 380.414062 254.1875 379.929688 252.8125 C 379.449219 251.4375 378.894531 250.09375 378.269531 248.777344 C 377.644531 247.460938 376.949219 246.179688 376.191406 244.933594 C 375.429688 243.691406 374.609375 242.492188 373.722656 241.332031 C 372.835938 240.175781 371.890625 239.070312 370.886719 238.011719 C 369.882812 236.953125 368.828125 235.953125 367.71875 235.003906 C 366.609375 234.058594 365.453125 233.171875 364.253906 232.347656 C 363.050781 231.523438 361.808594 230.765625 360.527344 230.070312 C 359.242188 229.375 357.929688 228.75 356.582031 228.195312 C 355.234375 227.640625 353.859375 227.15625 352.460938 226.746094 C 351.0625 226.335938 349.644531 226 348.210938 225.738281 C 346.777344 225.476562 345.332031 225.289062 343.878906 225.179688 C 342.425781 225.070312 340.96875 225.035156 339.511719 225.082031 C 338.054688 225.125 336.601562 225.242188 335.15625 225.441406 C 333.710938 225.636719 332.28125 225.90625 330.867188 226.253906 C 329.449219 226.601562 328.054688 227.023438 326.683594 227.515625 L 299.460938 237.308594 C 298.363281 237.707031 297.28125 238.148438 296.222656 238.636719 C 295.160156 239.121094 294.121094 239.652344 293.105469 240.226562 C 292.085938 240.800781 291.097656 241.417969 290.132812 242.078125 C 289.167969 242.734375 288.234375 243.433594 287.328125 244.167969 C 286.421875 244.90625 285.546875 245.679688 284.707031 246.492188 C 283.867188 247.300781 283.0625 248.144531 282.292969 249.023438 C 281.523438 249.902344 280.792969 250.8125 280.101562 251.75 C 279.40625 252.691406 278.753906 253.660156 278.144531 254.652344 C 277.53125 255.648438 276.964844 256.667969 276.441406 257.710938 C 275.914062 258.753906 275.433594 259.816406 275 260.898438 C 274.5625 261.984375 274.175781 263.082031 273.832031 264.199219 C 273.488281 265.316406 273.195312 266.441406 272.945312 267.582031 C 272.699219 268.726562 272.5 269.875 272.351562 271.03125 C 272.199219 272.1875 272.097656 273.351562 272.046875 274.519531 C 271.992188 275.683594 271.988281 276.851562 272.035156 278.015625 C 272.082031 279.183594 272.175781 280.347656 272.320312 281.503906 C 281.808594 358.546875 325.472656 544.917969 526.300781 585.871094 C 528.28125 586.273438 530.285156 586.53125 532.304688 586.644531 C 534.324219 586.757812 536.339844 586.722656 538.355469 586.539062 C 540.371094 586.359375 542.363281 586.03125 544.328125 585.558594 C 546.296875 585.085938 548.21875 584.472656 550.097656 583.71875 C 551.972656 582.964844 553.785156 582.078125 555.535156 581.0625 C 557.28125 580.042969 558.945312 578.902344 560.527344 577.644531 C 562.109375 576.382812 563.589844 575.011719 564.972656 573.535156 C 566.355469 572.058594 567.621094 570.488281 568.773438 568.824219 L 584.394531 546.261719 C 585.171875 545.144531 585.886719 543.992188 586.550781 542.804688 C 587.210938 541.617188 587.8125 540.398438 588.351562 539.152344 C 588.894531 537.902344 589.371094 536.632812 589.789062 535.339844 C 590.203125 534.046875 590.554688 532.734375 590.84375 531.40625 C 591.128906 530.074219 591.351562 528.738281 591.507812 527.386719 C 591.664062 526.035156 591.753906 524.679688 591.773438 523.320312 C 591.796875 521.960938 591.753906 520.605469 591.640625 519.25 C 591.53125 517.894531 591.355469 516.550781 591.109375 515.210938 C 590.867188 513.875 590.558594 512.550781 590.183594 511.246094 C 589.8125 509.9375 589.375 508.652344 588.875 507.386719 C 588.375 506.121094 587.816406 504.886719 587.195312 503.675781 C 586.574219 502.46875 585.894531 501.289062 585.15625 500.148438 C 584.421875 499.003906 583.628906 497.902344 582.785156 496.835938 C 581.9375 495.773438 581.042969 494.75 580.097656 493.773438 C 579.152344 492.796875 578.160156 491.867188 577.121094 490.988281 C 576.085938 490.109375 575.007812 489.28125 573.890625 488.507812 C 573.800781 488.445312 573.714844 488.386719 573.625 488.328125 L 539.289062 464.960938 C 538.367188 464.332031 537.421875 463.746094 536.453125 463.191406 C 535.484375 462.640625 534.492188 462.128906 533.484375 461.660156 C 532.472656 461.1875 531.445312 460.757812 530.398438 460.367188 C 529.355469 459.980469 528.296875 459.632812 527.222656 459.332031 C 526.148438 459.027344 525.066406 458.765625 523.972656 458.550781 C 522.878906 458.335938 521.777344 458.164062 520.667969 458.035156 C 519.5625 457.90625 518.449219 457.824219 517.335938 457.789062 C 516.222656 457.75 515.105469 457.757812 513.992188 457.808594 C 512.878906 457.859375 511.769531 457.957031 510.664062 458.097656 C 509.554688 458.238281 508.457031 458.421875 507.367188 458.652344 C 506.273438 458.882812 505.195312 459.15625 504.125 459.472656 C 503.054688 459.789062 502 460.144531 500.960938 460.546875 C 499.921875 460.949219 498.898438 461.390625 497.894531 461.875 C 496.890625 462.359375 495.90625 462.882812 494.941406 463.445312 C 493.980469 464.007812 493.042969 464.609375 492.128906 465.246094 C 491.214844 465.886719 490.328125 466.558594 489.46875 467.269531 C 488.613281 467.976562 487.734375 468.648438 486.824219 469.285156 C 485.917969 469.921875 484.988281 470.519531 484.03125 471.082031 C 483.074219 471.644531 482.097656 472.164062 481.101562 472.648438 C 480.105469 473.132812 479.089844 473.574219 478.054688 473.976562 C 477.023438 474.378906 475.976562 474.738281 474.914062 475.054688 C 473.851562 475.375 472.777344 475.648438 471.695312 475.878906 C 470.609375 476.113281 469.519531 476.300781 468.417969 476.445312 C 467.320312 476.589844 466.214844 476.6875 465.109375 476.746094 C 464.003906 476.800781 462.894531 476.8125 461.785156 476.777344 C 460.679688 476.746094 459.574219 476.667969 458.472656 476.546875 C 457.371094 476.425781 456.273438 476.257812 455.1875 476.050781 C 454.097656 475.839844 453.019531 475.585938 451.949219 475.292969 C 450.882812 474.996094 449.828125 474.65625 448.785156 474.277344 C 447.746094 473.898438 446.722656 473.476562 445.714844 473.011719 C 444.707031 472.550781 443.71875 472.046875 442.753906 471.507812 C 441.785156 470.964844 440.839844 470.386719 439.921875 469.765625 C 419.035156 455.703125 390.765625 432.378906 372.402344 400.042969 C 371.375 398.238281 370.484375 396.371094 369.734375 394.433594 C 368.984375 392.5 368.386719 390.519531 367.933594 388.492188 C 367.480469 386.46875 367.179688 384.421875 367.03125 382.351562 C 366.886719 380.28125 366.894531 378.210938 367.058594 376.140625 C 367.222656 374.074219 367.535156 372.027344 368.007812 370.003906 C 368.476562 367.984375 369.09375 366.007812 369.855469 364.078125 C 370.621094 362.148438 371.527344 360.289062 372.570312 358.492188 C 373.613281 356.699219 374.785156 354.992188 376.082031 353.375 L 384.917969 342.394531 C 386.898438 339.933594 388.578125 337.277344 389.953125 334.429688 C 391.328125 331.585938 392.363281 328.621094 393.0625 325.535156 C 393.757812 322.453125 394.097656 319.332031 394.082031 316.171875 C 394.066406 313.011719 393.695312 309.890625 392.964844 306.816406 Z M 392.964844 306.816406 " fill-opacity="1" fill-rule="nonzero"/></svg>